<svg width="520" height="120" viewBox="0 0 520 120" fill="none" xmlns="http://www.w3.org/2000/svg">
<path d="M207.511 66.6376H195.019C193.972 66.6376 193.128 65.7935 193.128 64.7465V42.028C193.128 39.6985 191.692 38.5297 188.826 38.5297L170.629 38.4648C169.59 38.4648 168.746 37.6125 168.746 36.5736V36.4194C168.746 35.0639 167.812 34.3821 165.937 34.3821H157.512C156.749 34.3821 156.165 34.4551 155.759 34.6012C154.826 34.8934 154.387 35.5834 154.387 36.5979C154.387 37.645 153.543 38.4891 152.496 38.4891L137.302 38.4972C134.924 38.4972 133 40.4209 133 42.799C133 45.1772 134.924 47.1009 137.302 47.1009L152.464 47.109C153.511 47.109 154.355 47.9531 154.355 49.0002V64.7302C154.355 65.7773 153.511 66.6214 152.464 66.6214L137.318 66.6133C134.94 66.6133 133 68.5613 133 70.9395C133 73.3177 134.924 75.2657 137.302 75.2657H152.472C153.519 75.2657 154.363 76.1098 154.363 77.1568V98.6173C154.363 100.995 155.792 102.189 158.665 102.189L164.533 102.18C165.816 102.18 166.83 101.896 167.577 101.32C167.65 101.263 167.723 101.198 167.788 101.133C168.421 100.468 168.738 99.5994 168.738 98.5442L168.754 77.1974C168.754 76.1504 169.598 75.2981 170.645 75.2981H195.539C196.586 75.2981 197.43 76.1422 197.43 77.1893V88.0981C197.43 89.1451 196.578 89.9649 195.531 89.9568L184.338 89.9649C181.976 89.9649 180.06 91.8804 180.06 94.2424C180.06 96.6043 181.976 98.5199 184.338 98.5199L207.43 98.5118C208.777 98.5118 209.824 98.1952 210.587 97.5621C211.35 96.929 211.732 96.0605 211.732 94.9404L211.821 70.1927C211.813 67.8308 210.376 66.6376 207.511 66.6376ZM178.827 61.5972C178.827 64.3812 176.57 66.6376 173.786 66.6376C171.002 66.6376 168.746 64.3812 168.746 61.5972V52.1738C168.746 49.3898 171.002 47.1333 173.786 47.1333C176.57 47.1333 178.827 49.3898 178.827 52.1738V61.5972Z" fill="#1B3882"/>
<path d="M198.121 52.247C198.827 55.802 202.285 58.1234 205.84 57.4173C209.395 56.7111 211.717 53.2534 211.01 49.6983L208.6 37.499C207.894 33.9439 204.436 31.6225 200.881 32.3287C197.326 33.0348 195.004 36.4925 195.711 40.0476L198.121 52.247Z" fill="#1B3882"/>
<path d="M297.061 91.3369L269.002 91.3207V74.2839L294.488 74.2676C296.858 74.2676 298.782 72.344 298.782 69.9739C298.782 67.6039 296.858 65.6802 294.488 65.6802L269.002 65.6883V49.0898L294.488 49.0086C296.858 49.0086 298.782 47.085 298.782 44.7149C298.782 42.3449 296.858 40.4212 294.488 40.4212H269.002V37.5804C269.002 35.6892 267.598 34.7395 264.789 34.7395H258.207C255.342 34.7395 253.905 35.9327 253.905 38.3027V40.4131H239.831C240.22 37.556 238.686 34.6827 235.91 33.4896C232.574 32.061 228.711 33.6113 227.29 36.9473L222.396 48.3755C220.968 51.7115 222.518 55.575 225.854 56.9954C229.19 58.4239 233.053 56.8737 234.474 53.5377L236.389 49.0654H253.905V65.664C253.905 65.664 237.144 65.6559 237.112 65.6559H226.3C223.93 65.6559 222.007 67.5795 222.007 69.9496C222.007 72.3196 223.93 74.2433 226.3 74.2433L253.905 74.2595V91.2964L225.553 91.3126C223.183 91.3126 221.26 93.2362 221.26 95.6063C221.26 97.9764 223.183 99.9 225.553 99.9H297.053C299.423 99.9 301.347 97.9764 301.347 95.6063C301.347 93.2606 299.431 91.3369 297.061 91.3369Z" fill="#1B3882"/>
<path d="M322.783 75.485C326.261 75.485 329.081 72.665 329.081 69.1865C329.081 65.7079 326.261 62.8879 322.783 62.8879C319.304 62.8879 316.484 65.7079 316.484 69.1865C316.484 72.665 319.304 75.485 322.783 75.485Z" fill="#1B3882"/>
<path d="M504.028 78.342H465.977C462.763 78.342 461.164 79.5758 461.164 82.0351V97.7895C461.164 100.2 462.763 101.41 465.977 101.41H504.117C507.323 101.41 508.898 100.2 508.841 97.7895V82.0351C508.841 79.5758 507.242 78.342 504.028 78.342ZM490.903 93.1955H478.753C476.821 93.1955 475.246 91.629 475.246 89.6891C475.246 87.7573 476.813 86.1827 478.753 86.1827H490.903C492.843 86.1827 494.41 87.7492 494.41 89.6891C494.402 91.6209 492.835 93.1955 490.903 93.1955Z" fill="#1B3882"/>
<path d="M450.216 93.0656H449.72V57.0844C449.72 54.6251 448.235 53.3914 445.273 53.3914L432.432 53.3995C429.981 53.3995 427.992 55.3881 427.992 57.8474C427.992 60.3068 429.981 62.2872 432.432 62.2872H435.646V98.2359C435.646 100.379 436.774 101.588 439.031 101.864C439.063 101.888 450.224 101.872 450.224 101.872C452.659 101.872 454.631 99.8998 454.631 97.4648C454.623 95.0379 452.651 93.0656 450.216 93.0656Z" fill="#1B3882"/>
<path d="M507.148 66.1184H505.321V53.8866C505.321 51.4272 503.714 50.1935 500.508 50.1935H482.148L483.414 42.2392H506.036C508.211 42.2392 509.972 40.5022 509.972 38.3269C509.972 36.1517 508.211 34.3904 506.036 34.3904H462.051C459.876 34.3904 458.115 36.1517 458.115 38.3269C458.115 40.5022 459.884 42.2392 462.06 42.2392H469.624L468.358 50.1935H463.496C461.345 50.1935 459.6 51.9386 459.6 54.0895C459.6 56.2404 461.345 57.9855 463.496 57.9855H467.157L465.631 66.1508H461.24C459.089 66.1508 457.344 67.8716 457.344 70.0225C457.344 72.1734 459.089 73.9185 461.24 73.9185H507.156C509.307 73.9185 511.052 72.1734 511.052 70.0225C511.044 67.8634 509.299 66.1184 507.148 66.1184ZM487.935 66.1346H484.315C481.759 66.1346 479.827 63.8295 480.273 61.3133C480.622 59.3491 482.327 57.9205 484.315 57.9205H487.935C490.208 57.9205 492.042 59.763 492.042 62.0276C492.042 64.2921 490.208 66.1346 487.935 66.1346Z" fill="#1B3882"/>
<path d="M448.44 43.4445C449.063 39.5945 446.447 35.9682 442.597 35.345C438.747 34.7218 435.121 37.3376 434.498 41.1877C433.874 45.0377 436.49 48.664 440.34 49.2872C444.19 49.9104 447.817 47.2946 448.44 43.4445Z" fill="#1B3882"/>
<path d="M346.71 48.9515C348.593 51.7355 352.376 52.4579 355.16 50.5749C357.944 48.6918 358.666 44.9095 356.783 42.1254L354.429 38.6515C352.546 35.8675 348.764 35.1451 345.98 37.0282C343.196 38.9112 342.473 42.6936 344.357 45.4776L346.71 48.9515Z" fill="#1B3882"/>
<path d="M355.404 58.0421C353.521 55.2581 349.739 54.5357 346.954 56.4188C344.17 58.3019 343.448 62.0842 345.331 64.8682L347.685 68.3422C349.568 71.1262 353.35 71.8486 356.134 69.9655C358.918 68.0824 359.641 64.3001 357.758 61.5161L355.404 58.0421Z" fill="#1B3882"/>
<path d="M354.64 76.7594C351.052 75.9639 347.497 78.2204 346.694 81.8079L343.958 94.0966C343.163 97.6841 345.419 101.239 349.007 102.043C352.594 102.838 356.15 100.582 356.953 96.9942L359.688 84.7056C360.492 81.118 358.227 77.5629 354.64 76.7594Z" fill="#1B3882"/>
<path d="M418.446 39.0654H417.309C417.058 36.0298 414.517 33.6516 411.425 33.6516C408.316 33.6516 405.767 36.0136 405.532 39.0573H400.508V38.0914C400.508 36.9064 399.875 35.9648 399.225 35.3886C398.56 34.8042 396.92 34.4795 395.273 34.4795H391.571C389.932 34.4795 388.714 34.7798 387.927 35.3886C387.14 35.9973 386.742 36.9064 386.742 38.1158V39.0573L370.687 39.0654C368.504 39.0654 366.734 40.8348 366.734 43.0182C366.734 45.2016 368.504 46.971 370.687 46.971H386.742V51.3621H372.7C370.996 51.3621 369.778 51.6949 369.056 52.3443C368.204 52.953 367.781 53.8621 367.781 55.0714V98.2196C367.781 99.429 368.204 100.338 369.056 100.947C369.843 101.556 371.061 101.856 372.7 101.856H376.442C378.025 101.856 379.234 101.556 380.086 100.947C380.939 100.289 381.361 99.3803 381.361 98.2196V90.4601C381.361 88.9747 382.562 87.7734 384.047 87.7734C385.533 87.7734 386.734 88.9747 386.734 90.4601V98.2926C386.734 100.663 388.341 101.848 391.571 101.848H395.581C397.164 101.848 398.381 101.547 399.225 100.939C400.078 100.281 400.5 99.3721 400.5 98.2114V90.6386C400.5 89.0559 401.782 87.7653 403.373 87.7653C404.964 87.7653 406.246 89.0478 406.246 90.6386V94.0882C404.274 94.283 402.724 95.9307 402.724 97.9598C402.724 100.119 404.477 101.872 406.636 101.872L415.004 101.856C416.587 101.856 417.804 101.531 418.649 100.874C419.436 100.265 419.834 99.3884 419.834 98.2277V55.0796C419.834 53.8702 419.436 52.9611 418.649 52.3524C417.796 51.6949 416.579 51.3703 415.004 51.3703H400.492V46.9791H418.446C420.629 46.9791 422.398 45.2097 422.398 43.0263C422.398 40.8348 420.629 39.0654 418.446 39.0654ZM386.734 77.4491C386.734 78.9344 385.533 80.1357 384.047 80.1357C382.562 80.1357 381.361 78.9344 381.361 77.4491V76.1666C381.361 74.6813 382.562 73.48 384.047 73.48C385.533 73.48 386.734 74.6813 386.734 76.1666V77.4491ZM386.734 63.2124C386.734 64.6978 385.533 65.8991 384.047 65.8991C382.562 65.8991 381.361 64.6978 381.361 63.2124V61.6297C381.361 60.1444 382.562 58.9431 384.047 58.9431C385.533 58.9431 386.734 60.1444 386.734 61.6297V63.2124ZM403.381 80.1357C401.79 80.1357 400.508 78.8532 400.508 77.2624V76.3452C400.508 74.7624 401.79 73.4719 403.381 73.4719C404.972 73.4719 406.254 74.7543 406.254 76.3452V77.2624C406.254 78.8451 404.964 80.1357 403.381 80.1357ZM403.381 58.9431C404.972 58.9431 406.254 60.2255 406.254 61.8164V63.0339C406.254 64.6166 404.972 65.9072 403.381 65.9072C401.79 65.9072 400.508 64.6247 400.508 63.0339V61.8164C400.508 60.2255 401.79 58.9431 403.381 58.9431Z" fill="#1B3882"/>
<path d="M34.1816 94.8276C34.1816 94.8276 44.3687 93.6951 44.9349 93.5064C45.5012 93.3176 56.0657 93.8839 56.0657 93.8839L62.8554 95.5826L69.0788 97.8476L70.7775 98.4138L80.0208 95.0163L91.1516 93.3176L98.6962 93.5064L104.542 94.2614L106.996 95.0163L106.807 105.203L101.711 103.882L91.9013 103.127L85.1117 103.693L79.2658 105.015L73.9862 106.713L70.2112 108.223L62.2891 105.203L52.6683 103.316H41.5375L34.1816 104.637V94.8276Z" fill="#1B3882" fill-opacity="0.5"/>
<path d="M70.1806 110C53.0309 100.557 34.8169 106.22 34.6334 106.278L32.5781 106.933V93.9303L33.6686 93.579C34.4603 93.3221 53.3245 87.4238 71.6958 97.5375L70.1806 100.295C55.4374 92.1792 39.913 95.2253 35.7239 96.2739V102.723C41.1975 101.423 56.6118 98.9321 71.6958 107.237L70.1806 109.995V110Z" fill="#1B3882"/>
<path d="M69.9664 110.001L68.4512 107.244C83.5352 98.9387 98.9495 101.429 104.423 102.729V96.2805C100.239 95.2267 84.7096 92.1858 69.9664 100.302L68.4512 97.5441C86.8225 87.4304 105.687 93.3287 106.478 93.5856L107.569 93.9369V106.945L105.514 106.279C105.335 106.221 87.1214 100.559 69.9664 110.001Z" fill="#1B3882"/>
<path d="M89.7103 80.3459C89.7155 79.2082 89.3171 78.233 88.5097 77.3836C87.7127 76.5762 86.748 76.1935 85.6365 76.2249C84.4988 76.3036 83.5289 76.7597 82.711 77.5566C81.914 78.5213 81.5261 79.528 81.5313 80.671C81.5261 81.7667 81.914 82.7419 82.6952 83.5441C83.4922 84.3934 84.4674 84.7814 85.6208 84.7028C86.7428 84.708 87.7075 84.2519 88.4992 83.3711C89.3066 82.4903 89.7051 81.4784 89.7155 80.3406L89.7103 80.3459Z" fill="#1B3882" fill-opacity="0.5"/>
<path d="M57.9486 83.3763C58.756 82.4955 59.1545 81.5308 59.1492 80.3878C59.1545 79.2501 58.756 78.191 57.9591 77.2997C57.1044 76.5762 56.1502 76.2354 55.0807 76.2669C53.9062 76.3875 52.9363 76.8016 52.1551 77.5147C51.3582 78.3955 50.9597 79.4441 50.9492 80.629C50.9492 81.7667 51.3529 82.7419 52.1498 83.5493C52.9206 84.3987 53.8905 84.7814 55.0387 84.708C56.2236 84.6713 57.1831 84.2572 57.9433 83.3763H57.9486Z" fill="#1B3882" fill-opacity="0.5"/>
<path d="M69.9078 94.7693C66.7568 94.7693 63.6635 94.5072 61.2937 93.899C54.9182 92.2632 49.8431 89.3114 45.7798 84.8706C41.5592 80.2516 41.2918 75.8003 41.0087 71.0869C40.9719 70.484 40.9353 69.8705 40.8881 69.2466C40.5106 64.0299 38.0464 55.8771 38.0202 55.7984L37.8262 55.1588L38.2194 54.6188C41.8475 49.6799 46.3198 46.1514 51.9035 43.8235C57.0311 41.6844 63.1339 40.5676 70.5632 40.4051C82.9313 39.6816 96.4162 44.8249 102.634 52.6421L103.028 53.135L100.212 66.2686C100.181 66.9764 99.971 70.6727 98.9538 78.2278C97.7584 87.0779 86.8268 92.1426 81.2116 93.5792C78.3595 94.3132 74.076 94.7693 69.9026 94.7693H69.9078ZM40.7727 55.6673C41.3809 57.7593 43.2159 64.3602 43.5567 69.0474C43.6039 69.6818 43.6406 70.3109 43.6773 70.9244C43.95 75.5172 44.1701 79.1453 47.7511 83.0671C51.4526 87.1146 56.0979 89.8147 61.9543 91.3142C66.9193 92.5883 75.8691 92.195 80.5511 90.9892C84.5829 89.9563 95.2733 85.5784 96.3114 77.8608C97.4072 69.7395 97.5487 66.0746 97.554 66.0379V65.9226L100.154 53.8113C96.0649 45.9574 93.6375 44.3478 88.4364 42.3869C82.9523 40.316 76.2675 42.7277 70.6943 43.058H70.6471C56.4387 43.3674 46.0209 38.8112 40.7675 55.6621L40.7727 55.6673Z" fill="#1B3882"/>
<path d="M97.84 54.8285C98.8519 57.4342 99.2819 58.7397 100.231 61.1253C100.231 61.1253 102.742 57.0935 103.534 54.2098C104.331 51.2947 103.843 47.5827 103.219 44.1119C101.652 38.287 100.435 37.836 95.7324 34.3862C93.6457 32.9549 91.2863 31.6861 88.6177 30.5693C82.8452 28.3935 77.0465 27.1876 71.211 26.9359C65.4281 26.8363 59.5927 27.7014 53.7468 29.5207C51.0309 30.4644 48.6087 31.5969 46.4643 32.9077C41.5779 36.0692 38.1752 40.5204 36.2825 46.2353C35.7739 48.3849 34.9665 50.4506 35.1657 52.443C36.078 61.5814 42.0392 65.5923 41.6303 63.3902C41.1008 60.5485 41.4416 58.8708 42.1703 56.1549C43.5545 51.0168 46.8313 47.2209 52.0061 44.8039H52.0218C53.0285 44.5208 58.1299 41.6215 64.9038 45.0871C66.7021 45.8578 69.8479 47.9445 71.4208 47.8973C72.9989 47.8501 75.2691 46.3296 76.9206 45.2968C80.0245 43.3516 82.9658 42.6858 86.8508 43.9179C92.4975 45.6952 95.9631 49.7114 97.84 54.8337V54.8285Z" fill="#1B3882"/>
<path d="M14.5303 50.271L18.777 51.5188L23.6478 51.2671L27.1448 48.892L30.8935 45.5208L33.6408 41.7721L37.1379 38.1492L40.5091 36.0258L45.1281 35.0244L42.0034 40.519L39.3819 43.1405L33.8873 50.7585L31.3916 54.5073L28.5185 56.5048L24.3975 59.2521C24.3975 59.2521 20.7746 60.0019 20.4024 60.1277C20.0301 60.2535 17.0312 60.7516 17.0312 60.7516L14.4097 60.6258L12.4121 60.0019L14.2838 56.2532L14.5355 53.5058V50.2605L14.5303 50.271Z" fill="#1B3882" fill-opacity="0.5"/>
<path d="M25.3947 28.6711L25.0171 31.539L24.021 33.5419L22.7732 35.4136L19.6484 37.2853L23.3971 39.1571L27.518 40.7824L31.7648 41.6579L33.6366 41.7838L38.135 38.659L42.8799 34.4122L41.2546 33.9141L35.3877 33.2902L31.0151 31.6649L27.8903 30.0448L25.3947 28.6711Z" fill="#1B3882" fill-opacity="0.5"/>
<path d="M15.9155 61.812C14.5942 61.812 13.2048 61.7334 11.7473 61.5813L9 61.2667L10.3527 60.3964L11.0762 59.6152C11.1758 59.4632 11.4642 58.9598 11.9413 57.9008V57.8903C12.712 56.2335 12.9794 53.46 12.7435 49.6483L12.5809 47.0845L14.5575 48.7203C16.6233 50.4295 19.2133 50.8385 22.4692 49.9577C25.379 49.1293 28.5457 46.4134 31.8698 41.894C34.9264 37.4952 39.3253 34.5119 44.9562 33.0229L45.4858 32.8813L49.0457 35.6549L45.8475 35.4242C45.5487 35.7125 45.2498 36.0219 44.9772 36.3627L44.9143 36.4413L44.8304 36.5147C42.9953 39.7758 40.3686 42.995 37.7419 46.5183L37.7052 46.5812C37.3015 47.289 36.8873 48.023 36.4364 48.7518V48.7885L36.2896 49.0244C33.5999 53.3971 30.6429 56.6739 27.4972 58.7711C24.6083 60.7949 20.7233 61.8172 15.9155 61.8172V61.812ZM13.64 59.5156C19.0665 59.8669 23.2975 59.007 26.2336 56.9413L26.2546 56.9256C29.1015 55.0329 31.8121 52.0286 34.313 48.002C34.3602 47.8657 34.4283 47.7504 34.5017 47.6613C34.9474 46.943 35.3668 46.2037 35.7758 45.4854V45.4749C37.5531 42.067 39.5979 39.0366 41.8786 36.4413C38.4759 37.9408 35.781 40.1691 33.6943 43.1733L33.6786 43.1995C30.0033 48.2065 26.5325 51.1164 23.0721 52.102C20.0155 52.9252 17.3311 52.7784 15.0556 51.6669C15.1028 54.8022 14.7463 57.1563 13.9756 58.8183C13.8602 59.0804 13.7501 59.3111 13.6505 59.5156H13.64Z" fill="#1B3882"/>
<path d="M16.1662 61.8118C14.845 61.8118 13.4556 61.7332 11.998 61.5811L12.2287 59.3738C18.4573 60.0292 23.2494 59.2113 26.4791 56.9411L26.5053 56.9254C29.3522 55.0327 32.0628 52.0284 34.5637 48.0018C34.6528 47.7554 34.7944 47.5876 34.9202 47.4775L36.3725 49.1553C36.5927 48.9613 36.6871 48.6992 36.7028 48.5157L36.6819 48.783L36.5403 49.019C33.8507 53.3916 30.8936 56.6685 27.7479 58.7656C24.859 60.7894 20.974 61.8118 16.1662 61.8118Z" fill="#1B3882"/>
<path d="M35.142 40.5309C34.6702 40.5624 34.1983 40.5886 33.7264 40.6043C29.9882 40.7354 25.9983 39.6921 21.8407 37.5058C25.4426 35.1779 26.444 32.5249 26.3024 30.1342C27.1623 30.8157 28.0588 31.4134 28.9921 31.922C35.1054 35.3666 41.5647 35.9119 52.6063 32.8238L51.8566 30.7318C41.3654 33.626 35.6821 33.1489 30.0669 29.9821C28.473 29.117 26.9945 27.9531 25.6733 26.5322L25.5212 26.3697L23.2458 23.9055L23.6757 27.0723C23.7386 27.3344 25.0441 33.5159 19.0829 36.5306L17.2793 37.4428L19.02 38.4757C23.8959 41.3751 28.625 42.8431 33.0816 42.8431L35.142 40.5362V40.5309Z" fill="#1B3882"/>
<path d="M63.2279 74.5944C62.5358 74.5944 61.8857 74.1645 61.5659 73.4409C60.0821 70.054 58.9182 68.6436 57.1618 66.5097C55.3844 64.3549 51.599 60.7058 50.9751 60.1762C50.1415 59.4684 49.9055 58.5037 50.4036 57.8379C50.6553 57.5076 51.3998 56.8417 52.9307 57.8588C56.0345 59.9141 62.9238 66.0955 64.785 71.0606C65.4666 72.8642 64.785 74.0911 63.8727 74.4633C63.6578 74.5524 63.4428 74.5891 63.2226 74.5891L63.2279 74.5944Z" fill="#1B3882"/>
<path d="M76.6236 74.6782C76.4034 74.6782 76.1779 74.6362 75.9577 74.5418C75.0455 74.1591 74.3848 72.9218 75.0874 71.1287C77.0116 66.1898 83.9794 60.0975 87.1095 58.079C88.6562 57.0828 89.3902 57.7539 89.6366 58.0894C90.1294 58.7605 89.883 59.72 89.0389 60.4173C88.4097 60.9416 84.5772 64.533 82.7736 66.6722C80.991 68.7851 79.8113 70.1797 78.2804 73.5509C77.9553 74.264 77.3104 74.6834 76.6288 74.6834L76.6236 74.6782Z" fill="#1B3882"/>
<path d="M83.4646 20.5289C83.5117 17.9546 82.2587 15.7368 79.7053 13.8808C77.1101 12.0615 74.0115 11.144 70.4096 11.1178C66.8077 11.0915 63.7197 11.9776 61.1768 13.7864C58.6183 15.611 57.3128 17.8025 57.2812 20.3559C57.2917 21.1528 57.3599 21.8816 57.4595 22.5631C67.0069 19.4908 75.5583 19.7424 83.0976 23.3234C83.3021 22.3691 83.4279 21.4411 83.4646 20.5236V20.5289Z" fill="#1B3882" fill-opacity="0.5"/>
<path d="M43.5459 72.345L43.4986 72.2349C43.3728 71.9466 43.2627 71.6529 43.1736 71.3646L42.9062 70.5047L41.1393 70.5624L41.003 72.0461C41.0135 72.1038 41.0449 72.2454 41.0764 72.4971V72.5495C41.0921 72.6386 41.0974 72.712 41.1131 72.7854C41.1393 73.5719 40.9034 74.1958 40.3686 74.7463C39.8601 75.2863 39.1942 75.5275 38.3186 75.4908C37.2333 75.4488 36.8716 75.0137 36.6933 74.6886C36.2162 73.8288 36.1847 73.3674 36.211 73.1629C36.2791 72.6019 36.3944 72.0095 36.557 71.4118C36.8086 70.4785 36.6199 69.3932 35.9855 68.1926L35.3354 66.9605C35.0889 66.4939 34.874 65.9067 34.6957 65.2146C34.5594 64.6326 34.5961 63.9353 34.8006 63.1331C34.9841 62.4253 35.3773 61.8696 36.0012 61.4292C36.6251 61.0097 37.3696 60.8577 38.2557 60.973L38.3239 60.9835H38.392C39.2623 60.9888 39.9754 61.0727 40.5207 61.2195C40.3686 60.3701 40.3214 59.484 40.4001 58.5822C39.8286 58.3411 39.2519 58.1733 38.6699 58.0946H38.6385L38.2085 58.0579C36.9135 57.9373 35.6499 58.2257 34.4545 58.9178C33.2172 59.6413 32.3836 60.7109 31.9799 62.1003C31.6339 63.3114 31.5919 64.5592 31.8488 65.8018C31.8803 65.9905 31.9222 66.2107 31.9956 66.4205C32.1896 67.0339 32.5094 67.7155 32.9498 68.4495C33.6209 69.5557 33.8254 69.9175 33.8831 70.0381L33.904 70.08C33.9879 70.2321 34.0037 70.4628 33.946 70.7669L33.925 70.8665C33.8621 71.2073 33.7992 71.5271 33.773 71.6477C33.2487 73.0056 33.1962 74.2587 33.6104 75.3545C34.0299 76.5184 34.7691 77.3678 35.8177 77.8921C36.4259 78.1909 37.1285 78.3797 37.9097 78.4583C38.3344 78.5003 38.78 78.5055 39.2466 78.4793C40.7618 78.4006 41.9939 77.6823 42.8066 76.4188C43.6035 75.2182 43.8604 73.8865 43.5826 72.4656L43.5616 72.345H43.5459Z" fill="#1B3882"/>
<path d="M108.658 60.2652C108.249 58.8916 107.399 57.8272 106.13 57.0985H106.125C104.988 56.4483 103.771 56.181 102.502 56.3016C102.455 56.3016 102.408 56.312 102.361 56.3173L101.941 56.3697H101.905C101.097 56.5008 100.29 56.8049 99.5035 57.261C99.5087 57.324 99.5192 57.3921 99.5297 57.455C99.6031 58.2572 99.5664 59.0489 99.4301 59.8196L99.8862 59.6361C100.468 59.4002 101.26 59.2062 102.303 59.0489L102.361 59.0384C103.158 58.8758 103.845 59.0227 104.516 59.5103C105.223 60.0241 105.701 60.6637 105.973 61.4554C106.199 62.1999 106.23 62.8395 106.073 63.4058C105.879 64.1136 105.659 64.7427 105.417 65.2723C105.129 65.8804 104.835 66.4729 104.547 67.0129C104.112 67.8203 103.955 68.6959 104.086 69.6082C104.196 70.4051 104.311 71.0657 104.442 71.632C104.537 72.0252 104.479 72.5285 104.274 73.1262L104.264 73.1524C104.096 73.6872 103.194 73.9756 102.67 74.1014C101.475 74.3845 100.94 73.9494 100.62 73.5561C100.075 72.8536 99.8181 72.0934 99.8338 71.2388L99.8547 70.9923C99.881 70.7459 99.9072 70.6201 99.9177 70.5729L99.8809 69.042L97.9201 69.0892L97.7104 69.928C97.637 70.2164 97.5426 70.4995 97.422 70.7826L97.3696 70.9032L97.3486 71.0343C97.1179 72.4289 97.4063 73.7554 98.198 74.9822L98.2189 75.0084C99.084 76.2563 100.321 76.9431 101.795 76.9955C102.188 77.0165 102.57 77.006 102.932 76.9746C103.803 76.8959 104.579 76.6652 105.244 76.293C106.225 75.753 106.922 74.8878 107.331 73.7187C107.719 72.5705 107.64 71.3227 107.1 70.0067L106.969 69.2307L106.959 69.173C106.896 68.8952 106.922 68.6225 107.027 68.3499C107.232 67.8623 107.509 67.2961 107.85 66.6512C108.296 65.8647 108.584 65.1989 108.741 64.6326C108.82 64.381 108.873 64.1608 108.888 63.9406C109.093 62.7085 109.014 61.4764 108.647 60.2757L108.658 60.2652Z" fill="#1B3882"/>
<path d="M84.4092 22.9668C84.5613 22.128 84.6504 21.3363 84.6818 20.5446C84.7343 17.598 83.3135 15.05 80.4508 12.9685C77.6878 11.0286 74.348 10.0325 70.5259 10.001C66.6933 9.9643 63.3692 10.9395 60.6376 12.8794C57.7802 14.9189 56.3122 17.4303 56.2755 20.3453V20.3716C56.2807 20.9535 56.3175 21.5355 56.3909 22.1437C56.1235 22.4635 55.9767 22.8148 55.9609 23.1923V23.2342C55.9609 24.2199 56.1025 25.2056 56.4013 26.1598L56.4066 26.186C56.8155 27.3919 57.5181 28.5401 58.4985 29.5992L58.7817 29.9033L61.3612 30.1916C63.5632 31.4709 66.5045 32.1577 70.1222 32.2206C70.2795 32.2206 70.4368 32.2206 70.5888 32.2206C73.2575 32.2206 75.5906 31.8956 77.5305 31.2559L77.5829 31.235C78.3117 30.9519 79.0195 30.6111 79.6958 30.2179C81.7511 30.4118 83.2925 29.3999 84.0842 27.3395L84.2782 27.1297L84.2677 26.8361C84.5717 25.9029 85.1065 24.0731 84.404 22.9668H84.4092ZM61.9222 14.6882C64.2605 13.0262 67.1442 12.1978 70.5049 12.224C73.8656 12.2502 76.7807 13.1153 79.1558 14.7773C81.4155 16.4184 82.4955 18.2954 82.4588 20.4817C82.4431 20.8854 82.4116 21.2996 82.354 21.7295C78.5371 20.1304 74.4633 19.3335 70.1484 19.3335C66.4416 19.3335 62.5618 19.9259 58.5248 21.1056C58.509 20.8539 58.4985 20.6023 58.4933 20.3558C58.5248 18.1643 59.6467 16.3083 61.9222 14.6882ZM82.4379 25.1112L81.6881 26.7313C81.6881 26.7313 80.7077 28.1469 79.6381 27.9686L79.2239 27.9005L78.8674 28.1207C78.2173 28.5244 77.5252 28.8704 76.8069 29.1483C74.9981 29.7407 72.7594 30.0239 70.1589 29.9872C66.9397 29.9242 64.3602 29.3475 62.4884 28.2622C62.4308 28.2255 62.3731 28.1888 62.3206 28.1626L62.1005 28.0263L59.8669 27.7799C59.4423 27.2818 58.8393 26.2332 58.8393 26.2332L58.2259 24.4558C58.2259 24.4558 58.1944 23.7008 58.1892 23.5278C67.2281 20.6809 75.4175 20.9168 82.5322 24.2304C82.5427 24.3615 82.4379 25.1112 82.4379 25.1112ZM83.1037 26.7627V26.747L83.1194 26.7627H83.1037Z" fill="#1B3882"/>
</svg>