<svg width="299" height="299" viewBox="0 0 299 299" fill="none" xmlns="http://www.w3.org/2000/svg">
<path fill-rule="evenodd" clip-rule="evenodd" d="M149.5 299C232.067 299 299 232.067 299 149.5C299 66.9334 232.067 0 149.5 0C66.9334 0 0 66.9334 0 149.5C0 232.067 66.9334 299 149.5 299ZM107.573 83.5011C109.737 78.9147 116.262 78.9147 118.426 83.5011L174.779 202.94C176.657 206.92 173.753 211.5 169.352 211.5H56.6469C52.2462 211.5 49.3428 206.92 51.2206 202.94L107.573 83.5011ZM192 89C192 84.5817 195.581 81 200 81H220C224.418 81 228 84.5817 228 89V206C228 210.418 224.418 214 220 214H200C195.581 214 192 210.418 192 206V89Z" fill="white"/>
</svg>
